<mxfile host="app.diagrams.net" agent="Mozilla/5.0 (Windows NT 10.0; Win64; x64) AppleWebKit/537.36 (KHTML, like Gecko) Chrome/132.0.0.0 Safari/537.36" version="26.0.7">
  <diagram name="Página-1" id="hUZD1vpl5YjPBfnvqWsc">
    <mxGraphModel dx="1889" dy="578" grid="1" gridSize="10" guides="1" tooltips="1" connect="1" arrows="1" fold="1" page="1" pageScale="1" pageWidth="827" pageHeight="1169" math="0" shadow="0">
      <root>
        <mxCell id="0" />
        <mxCell id="1" parent="0" />
        <mxCell id="XV5S56shHWVsJy7ZyUxP-1" value="Cliente" style="swimlane;fontStyle=1;align=center;verticalAlign=top;childLayout=stackLayout;horizontal=1;startSize=26;horizontalStack=0;resizeParent=1;resizeParentMax=0;resizeLast=0;collapsible=1;marginBottom=0;whiteSpace=wrap;html=1;fontFamily=Helvetica;" parent="1" vertex="1">
          <mxGeometry x="140" y="280" width="630" height="250" as="geometry" />
        </mxCell>
        <mxCell id="XV5S56shHWVsJy7ZyUxP-2" value="- ID : int&lt;div&gt;- foto : str&amp;nbsp;&lt;br&gt;&lt;div&gt;- data_de_cadastro : str&lt;/div&gt;&lt;div&gt;- data_de_nascimento : str&lt;/div&gt;&lt;div&gt;- sexo : str&lt;/div&gt;&lt;div&gt;- nome : str&lt;/div&gt;&lt;div&gt;- cpf : str&lt;/div&gt;&lt;div&gt;- rg : str&lt;/div&gt;&lt;div&gt;- profissão : str&lt;/div&gt;&lt;div&gt;- numero_telefone : str&lt;/div&gt;&lt;div&gt;- email : str&lt;/div&gt;&lt;div&gt;&lt;br&gt;&lt;/div&gt;&lt;/div&gt;" style="text;strokeColor=none;fillColor=none;align=left;verticalAlign=top;spacingLeft=4;spacingRight=4;overflow=hidden;rotatable=0;points=[[0,0.5],[1,0.5]];portConstraint=eastwest;whiteSpace=wrap;html=1;fontFamily=Helvetica;" parent="XV5S56shHWVsJy7ZyUxP-1" vertex="1">
          <mxGeometry y="26" width="630" height="174" as="geometry" />
        </mxCell>
        <mxCell id="XV5S56shHWVsJy7ZyUxP-3" value="" style="line;strokeWidth=1;fillColor=none;align=left;verticalAlign=middle;spacingTop=-1;spacingLeft=3;spacingRight=3;rotatable=0;labelPosition=right;points=[];portConstraint=eastwest;strokeColor=inherit;fontFamily=Helvetica;" parent="XV5S56shHWVsJy7ZyUxP-1" vertex="1">
          <mxGeometry y="200" width="630" height="8" as="geometry" />
        </mxCell>
        <mxCell id="XV5S56shHWVsJy7ZyUxP-4" value="+ Cliente(ID : int, DC : str, DN : str, sexo : str, nome : str, cpf : str, rg : str, pfs : str, tel : str, email : str, endereço : str)&lt;div&gt;+ ToString()&lt;/div&gt;&lt;div&gt;&amp;nbsp;&lt;/div&gt;" style="text;strokeColor=none;fillColor=none;align=left;verticalAlign=top;spacingLeft=4;spacingRight=4;overflow=hidden;rotatable=0;points=[[0,0.5],[1,0.5]];portConstraint=eastwest;whiteSpace=wrap;html=1;fontFamily=Helvetica;" parent="XV5S56shHWVsJy7ZyUxP-1" vertex="1">
          <mxGeometry y="208" width="630" height="42" as="geometry" />
        </mxCell>
        <mxCell id="XV5S56shHWVsJy7ZyUxP-6" value="Mediçao" style="swimlane;fontStyle=1;align=center;verticalAlign=top;childLayout=stackLayout;horizontal=1;startSize=26;horizontalStack=0;resizeParent=1;resizeParentMax=0;resizeLast=0;collapsible=1;marginBottom=0;whiteSpace=wrap;html=1;fontFamily=Helvetica;" parent="1" vertex="1">
          <mxGeometry x="-260" y="350" width="220" height="160" as="geometry" />
        </mxCell>
        <mxCell id="XV5S56shHWVsJy7ZyUxP-7" value="- id&lt;div&gt;- id_cliente&lt;/div&gt;&lt;div&gt;- valor&lt;/div&gt;&lt;div&gt;- data&lt;/div&gt;" style="text;strokeColor=none;fillColor=none;align=left;verticalAlign=top;spacingLeft=4;spacingRight=4;overflow=hidden;rotatable=0;points=[[0,0.5],[1,0.5]];portConstraint=eastwest;whiteSpace=wrap;html=1;fontFamily=Helvetica;" parent="XV5S56shHWVsJy7ZyUxP-6" vertex="1">
          <mxGeometry y="26" width="220" height="64" as="geometry" />
        </mxCell>
        <mxCell id="XV5S56shHWVsJy7ZyUxP-8" value="" style="line;strokeWidth=1;fillColor=none;align=left;verticalAlign=middle;spacingTop=-1;spacingLeft=3;spacingRight=3;rotatable=0;labelPosition=right;points=[];portConstraint=eastwest;strokeColor=inherit;fontFamily=Helvetica;" parent="XV5S56shHWVsJy7ZyUxP-6" vertex="1">
          <mxGeometry y="90" width="220" height="8" as="geometry" />
        </mxCell>
        <mxCell id="XV5S56shHWVsJy7ZyUxP-9" value="+ Medidas(id : int, id_c: int, data : str&lt;span style=&quot;background-color: transparent; color: light-dark(rgb(0, 0, 0), rgb(255, 255, 255));&quot;&gt;)&lt;/span&gt;&lt;div&gt;&lt;span style=&quot;background-color: transparent; color: light-dark(rgb(0, 0, 0), rgb(255, 255, 255));&quot;&gt;&lt;br&gt;&lt;/span&gt;&lt;/div&gt;&lt;div&gt;&lt;span style=&quot;background-color: transparent; color: light-dark(rgb(0, 0, 0), rgb(255, 255, 255));&quot;&gt;+ ToString() : str&lt;/span&gt;&lt;/div&gt;" style="text;strokeColor=none;fillColor=none;align=left;verticalAlign=top;spacingLeft=4;spacingRight=4;overflow=hidden;rotatable=0;points=[[0,0.5],[1,0.5]];portConstraint=eastwest;whiteSpace=wrap;html=1;fontFamily=Helvetica;" parent="XV5S56shHWVsJy7ZyUxP-6" vertex="1">
          <mxGeometry y="98" width="220" height="62" as="geometry" />
        </mxCell>
        <mxCell id="XV5S56shHWVsJy7ZyUxP-10" value="Matricula" style="swimlane;fontStyle=1;align=center;verticalAlign=top;childLayout=stackLayout;horizontal=1;startSize=26;horizontalStack=0;resizeParent=1;resizeParentMax=0;resizeLast=0;collapsible=1;marginBottom=0;whiteSpace=wrap;html=1;fontFamily=Helvetica;" parent="1" vertex="1">
          <mxGeometry x="870" y="330" width="250" height="134" as="geometry" />
        </mxCell>
        <mxCell id="XV5S56shHWVsJy7ZyUxP-11" value="- id&lt;div&gt;- ID_cliente&lt;/div&gt;&lt;div&gt;- ano_virgente&lt;/div&gt;&lt;div&gt;- validade&lt;/div&gt;" style="text;strokeColor=none;fillColor=none;align=left;verticalAlign=top;spacingLeft=4;spacingRight=4;overflow=hidden;rotatable=0;points=[[0,0.5],[1,0.5]];portConstraint=eastwest;whiteSpace=wrap;html=1;fontFamily=Helvetica;" parent="XV5S56shHWVsJy7ZyUxP-10" vertex="1">
          <mxGeometry y="26" width="250" height="74" as="geometry" />
        </mxCell>
        <mxCell id="XV5S56shHWVsJy7ZyUxP-12" value="" style="line;strokeWidth=1;fillColor=none;align=left;verticalAlign=middle;spacingTop=-1;spacingLeft=3;spacingRight=3;rotatable=0;labelPosition=right;points=[];portConstraint=eastwest;strokeColor=inherit;fontFamily=Helvetica;" parent="XV5S56shHWVsJy7ZyUxP-10" vertex="1">
          <mxGeometry y="100" width="250" height="8" as="geometry" />
        </mxCell>
        <mxCell id="XV5S56shHWVsJy7ZyUxP-13" value="+ Anual(id : int, ID_c : int, AV : str, valid : str&lt;span style=&quot;background-color: transparent; color: light-dark(rgb(0, 0, 0), rgb(255, 255, 255));&quot;&gt;)&lt;/span&gt;" style="text;strokeColor=none;fillColor=none;align=left;verticalAlign=top;spacingLeft=4;spacingRight=4;overflow=hidden;rotatable=0;points=[[0,0.5],[1,0.5]];portConstraint=eastwest;whiteSpace=wrap;html=1;fontFamily=Helvetica;" parent="XV5S56shHWVsJy7ZyUxP-10" vertex="1">
          <mxGeometry y="108" width="250" height="26" as="geometry" />
        </mxCell>
        <mxCell id="XV5S56shHWVsJy7ZyUxP-14" value="pagamento" style="swimlane;fontStyle=1;align=center;verticalAlign=top;childLayout=stackLayout;horizontal=1;startSize=26;horizontalStack=0;resizeParent=1;resizeParentMax=0;resizeLast=0;collapsible=1;marginBottom=0;whiteSpace=wrap;html=1;fontFamily=Helvetica;" parent="1" vertex="1">
          <mxGeometry x="870" y="560" width="320" height="170" as="geometry" />
        </mxCell>
        <mxCell id="XV5S56shHWVsJy7ZyUxP-15" value="- id&lt;div&gt;- Id_cliente&lt;/div&gt;&lt;div&gt;- data&lt;/div&gt;&lt;div&gt;- mes_referente&lt;/div&gt;&lt;div&gt;- valor&lt;/div&gt;&lt;div&gt;- pago : boolean&lt;/div&gt;" style="text;strokeColor=none;fillColor=none;align=left;verticalAlign=top;spacingLeft=4;spacingRight=4;overflow=hidden;rotatable=0;points=[[0,0.5],[1,0.5]];portConstraint=eastwest;whiteSpace=wrap;html=1;fontFamily=Helvetica;" parent="XV5S56shHWVsJy7ZyUxP-14" vertex="1">
          <mxGeometry y="26" width="320" height="94" as="geometry" />
        </mxCell>
        <mxCell id="XV5S56shHWVsJy7ZyUxP-16" value="" style="line;strokeWidth=1;fillColor=none;align=left;verticalAlign=middle;spacingTop=-1;spacingLeft=3;spacingRight=3;rotatable=0;labelPosition=right;points=[];portConstraint=eastwest;strokeColor=inherit;fontFamily=Helvetica;" parent="XV5S56shHWVsJy7ZyUxP-14" vertex="1">
          <mxGeometry y="120" width="320" height="8" as="geometry" />
        </mxCell>
        <mxCell id="XV5S56shHWVsJy7ZyUxP-17" value="+ pagamento(id : int, c : int, data : str, mr : str, valor : float)" style="text;strokeColor=none;fillColor=none;align=left;verticalAlign=top;spacingLeft=4;spacingRight=4;overflow=hidden;rotatable=0;points=[[0,0.5],[1,0.5]];portConstraint=eastwest;whiteSpace=wrap;html=1;fontFamily=Helvetica;" parent="XV5S56shHWVsJy7ZyUxP-14" vertex="1">
          <mxGeometry y="128" width="320" height="42" as="geometry" />
        </mxCell>
        <mxCell id="XV5S56shHWVsJy7ZyUxP-19" value="exercicio" style="swimlane;fontStyle=1;align=center;verticalAlign=top;childLayout=stackLayout;horizontal=1;startSize=26;horizontalStack=0;resizeParent=1;resizeParentMax=0;resizeLast=0;collapsible=1;marginBottom=0;whiteSpace=wrap;html=1;fontFamily=Helvetica;" parent="1" vertex="1">
          <mxGeometry x="-210" y="620" width="220" height="120" as="geometry" />
        </mxCell>
        <mxCell id="XV5S56shHWVsJy7ZyUxP-20" value="- id&lt;div&gt;- ID_aluno&lt;/div&gt;&lt;div&gt;- data&lt;/div&gt;" style="text;strokeColor=none;fillColor=none;align=left;verticalAlign=top;spacingLeft=4;spacingRight=4;overflow=hidden;rotatable=0;points=[[0,0.5],[1,0.5]];portConstraint=eastwest;whiteSpace=wrap;html=1;fontFamily=Helvetica;" parent="XV5S56shHWVsJy7ZyUxP-19" vertex="1">
          <mxGeometry y="26" width="220" height="54" as="geometry" />
        </mxCell>
        <mxCell id="XV5S56shHWVsJy7ZyUxP-21" value="" style="line;strokeWidth=1;fillColor=none;align=left;verticalAlign=middle;spacingTop=-1;spacingLeft=3;spacingRight=3;rotatable=0;labelPosition=right;points=[];portConstraint=eastwest;strokeColor=inherit;fontFamily=Helvetica;" parent="XV5S56shHWVsJy7ZyUxP-19" vertex="1">
          <mxGeometry y="80" width="220" height="8" as="geometry" />
        </mxCell>
        <mxCell id="XV5S56shHWVsJy7ZyUxP-22" value="+ Treino(ID : int, ID_C : int, treino : str)" style="text;strokeColor=none;fillColor=none;align=left;verticalAlign=top;spacingLeft=4;spacingRight=4;overflow=hidden;rotatable=0;points=[[0,0.5],[1,0.5]];portConstraint=eastwest;whiteSpace=wrap;html=1;fontFamily=Helvetica;" parent="XV5S56shHWVsJy7ZyUxP-19" vertex="1">
          <mxGeometry y="88" width="220" height="32" as="geometry" />
        </mxCell>
        <mxCell id="XV5S56shHWVsJy7ZyUxP-24" value="&lt;div&gt;&amp;lt;&amp;lt; static &amp;gt;&amp;gt;&lt;/div&gt;modelo" style="swimlane;fontStyle=1;align=center;verticalAlign=top;childLayout=stackLayout;horizontal=1;startSize=35;horizontalStack=0;resizeParent=1;resizeParentMax=0;resizeLast=0;collapsible=1;marginBottom=0;whiteSpace=wrap;html=1;fontFamily=Helvetica;" parent="1" vertex="1">
          <mxGeometry x="365" y="585" width="160" height="179" as="geometry" />
        </mxCell>
        <mxCell id="XV5S56shHWVsJy7ZyUxP-25" value="- objetos : list" style="text;strokeColor=none;fillColor=none;align=left;verticalAlign=top;spacingLeft=4;spacingRight=4;overflow=hidden;rotatable=0;points=[[0,0.5],[1,0.5]];portConstraint=eastwest;whiteSpace=wrap;html=1;fontFamily=Helvetica;" parent="XV5S56shHWVsJy7ZyUxP-24" vertex="1">
          <mxGeometry y="35" width="160" height="26" as="geometry" />
        </mxCell>
        <mxCell id="XV5S56shHWVsJy7ZyUxP-26" value="" style="line;strokeWidth=1;fillColor=none;align=left;verticalAlign=middle;spacingTop=-1;spacingLeft=3;spacingRight=3;rotatable=0;labelPosition=right;points=[];portConstraint=eastwest;strokeColor=inherit;fontFamily=Helvetica;" parent="XV5S56shHWVsJy7ZyUxP-24" vertex="1">
          <mxGeometry y="61" width="160" height="8" as="geometry" />
        </mxCell>
        <mxCell id="XV5S56shHWVsJy7ZyUxP-27" value="+ inserir()&lt;div&gt;+ listar()&lt;/div&gt;&lt;div&gt;+ buscar_id()&lt;/div&gt;&lt;div&gt;+ atualizar()&lt;/div&gt;&lt;div&gt;+ excluir()&lt;/div&gt;&lt;div&gt;+ abrir()&lt;/div&gt;&lt;div&gt;+ salvar()&lt;/div&gt;" style="text;strokeColor=none;fillColor=none;align=left;verticalAlign=top;spacingLeft=4;spacingRight=4;overflow=hidden;rotatable=0;points=[[0,0.5],[1,0.5]];portConstraint=eastwest;whiteSpace=wrap;html=1;fontFamily=Helvetica;" parent="XV5S56shHWVsJy7ZyUxP-24" vertex="1">
          <mxGeometry y="69" width="160" height="110" as="geometry" />
        </mxCell>
        <mxCell id="XV5S56shHWVsJy7ZyUxP-32" value="&lt;div&gt;&amp;lt;&amp;lt; static &amp;gt;&amp;gt;&lt;br&gt;&lt;/div&gt;pagamentos" style="swimlane;fontStyle=0;childLayout=stackLayout;horizontal=1;startSize=35;fillColor=none;horizontalStack=0;resizeParent=1;resizeParentMax=0;resizeLast=0;collapsible=1;marginBottom=0;whiteSpace=wrap;html=1;fontFamily=Helvetica;" parent="1" vertex="1">
          <mxGeometry x="615" y="795" width="140" height="87" as="geometry" />
        </mxCell>
        <mxCell id="XV5S56shHWVsJy7ZyUxP-33" value="+ abrir()" style="text;strokeColor=none;fillColor=none;align=left;verticalAlign=top;spacingLeft=4;spacingRight=4;overflow=hidden;rotatable=0;points=[[0,0.5],[1,0.5]];portConstraint=eastwest;whiteSpace=wrap;html=1;fontFamily=Helvetica;" parent="XV5S56shHWVsJy7ZyUxP-32" vertex="1">
          <mxGeometry y="35" width="140" height="26" as="geometry" />
        </mxCell>
        <mxCell id="XV5S56shHWVsJy7ZyUxP-34" value="+ salvar" style="text;strokeColor=none;fillColor=none;align=left;verticalAlign=top;spacingLeft=4;spacingRight=4;overflow=hidden;rotatable=0;points=[[0,0.5],[1,0.5]];portConstraint=eastwest;whiteSpace=wrap;html=1;fontFamily=Helvetica;" parent="XV5S56shHWVsJy7ZyUxP-32" vertex="1">
          <mxGeometry y="61" width="140" height="26" as="geometry" />
        </mxCell>
        <mxCell id="XV5S56shHWVsJy7ZyUxP-35" value="&lt;div&gt;&amp;lt;&amp;lt; static &amp;gt;&amp;gt;&lt;br&gt;&lt;/div&gt;treinos" style="swimlane;fontStyle=0;childLayout=stackLayout;horizontal=1;startSize=35;fillColor=none;horizontalStack=0;resizeParent=1;resizeParentMax=0;resizeLast=0;collapsible=1;marginBottom=0;whiteSpace=wrap;html=1;fontFamily=Helvetica;" parent="1" vertex="1">
          <mxGeometry x="375" y="795" width="140" height="87" as="geometry" />
        </mxCell>
        <mxCell id="XV5S56shHWVsJy7ZyUxP-36" value="+ abrir" style="text;strokeColor=none;fillColor=none;align=left;verticalAlign=top;spacingLeft=4;spacingRight=4;overflow=hidden;rotatable=0;points=[[0,0.5],[1,0.5]];portConstraint=eastwest;whiteSpace=wrap;html=1;fontFamily=Helvetica;" parent="XV5S56shHWVsJy7ZyUxP-35" vertex="1">
          <mxGeometry y="35" width="140" height="26" as="geometry" />
        </mxCell>
        <mxCell id="XV5S56shHWVsJy7ZyUxP-37" value="+ salvar" style="text;strokeColor=none;fillColor=none;align=left;verticalAlign=top;spacingLeft=4;spacingRight=4;overflow=hidden;rotatable=0;points=[[0,0.5],[1,0.5]];portConstraint=eastwest;whiteSpace=wrap;html=1;fontFamily=Helvetica;" parent="XV5S56shHWVsJy7ZyUxP-35" vertex="1">
          <mxGeometry y="61" width="140" height="26" as="geometry" />
        </mxCell>
        <mxCell id="XV5S56shHWVsJy7ZyUxP-38" value="&lt;div&gt;&amp;lt;&amp;lt; static &amp;gt;&amp;gt;&lt;br&gt;&lt;/div&gt;medidas" style="swimlane;fontStyle=0;childLayout=stackLayout;horizontal=1;startSize=35;fillColor=none;horizontalStack=0;resizeParent=1;resizeParentMax=0;resizeLast=0;collapsible=1;marginBottom=0;whiteSpace=wrap;html=1;fontFamily=Helvetica;" parent="1" vertex="1">
          <mxGeometry x="140" y="795" width="140" height="87" as="geometry" />
        </mxCell>
        <mxCell id="XV5S56shHWVsJy7ZyUxP-39" value="+ abrir" style="text;strokeColor=none;fillColor=none;align=left;verticalAlign=top;spacingLeft=4;spacingRight=4;overflow=hidden;rotatable=0;points=[[0,0.5],[1,0.5]];portConstraint=eastwest;whiteSpace=wrap;html=1;fontFamily=Helvetica;" parent="XV5S56shHWVsJy7ZyUxP-38" vertex="1">
          <mxGeometry y="35" width="140" height="26" as="geometry" />
        </mxCell>
        <mxCell id="XV5S56shHWVsJy7ZyUxP-40" value="+ salvar" style="text;strokeColor=none;fillColor=none;align=left;verticalAlign=top;spacingLeft=4;spacingRight=4;overflow=hidden;rotatable=0;points=[[0,0.5],[1,0.5]];portConstraint=eastwest;whiteSpace=wrap;html=1;fontFamily=Helvetica;" parent="XV5S56shHWVsJy7ZyUxP-38" vertex="1">
          <mxGeometry y="61" width="140" height="26" as="geometry" />
        </mxCell>
        <mxCell id="XV5S56shHWVsJy7ZyUxP-41" value="&lt;div&gt;&amp;lt;&amp;lt; static &amp;gt;&amp;gt;&lt;br&gt;&lt;/div&gt;Clientes" style="swimlane;fontStyle=0;childLayout=stackLayout;horizontal=1;startSize=30;fillColor=none;horizontalStack=0;resizeParent=1;resizeParentMax=0;resizeLast=0;collapsible=1;marginBottom=0;whiteSpace=wrap;html=1;fontFamily=Helvetica;" parent="1" vertex="1">
          <mxGeometry x="140" y="682" width="140" height="82" as="geometry" />
        </mxCell>
        <mxCell id="XV5S56shHWVsJy7ZyUxP-42" value="+ abrir" style="text;strokeColor=none;fillColor=none;align=left;verticalAlign=top;spacingLeft=4;spacingRight=4;overflow=hidden;rotatable=0;points=[[0,0.5],[1,0.5]];portConstraint=eastwest;whiteSpace=wrap;html=1;fontFamily=Helvetica;" parent="XV5S56shHWVsJy7ZyUxP-41" vertex="1">
          <mxGeometry y="30" width="140" height="26" as="geometry" />
        </mxCell>
        <mxCell id="XV5S56shHWVsJy7ZyUxP-43" value="+ salvar" style="text;strokeColor=none;fillColor=none;align=left;verticalAlign=top;spacingLeft=4;spacingRight=4;overflow=hidden;rotatable=0;points=[[0,0.5],[1,0.5]];portConstraint=eastwest;whiteSpace=wrap;html=1;fontFamily=Helvetica;" parent="XV5S56shHWVsJy7ZyUxP-41" vertex="1">
          <mxGeometry y="56" width="140" height="26" as="geometry" />
        </mxCell>
        <mxCell id="XV5S56shHWVsJy7ZyUxP-44" value="&lt;div&gt;&amp;lt;&amp;lt; static &amp;gt;&amp;gt;&lt;br&gt;&lt;/div&gt;anuais" style="swimlane;fontStyle=0;childLayout=stackLayout;horizontal=1;startSize=33;fillColor=none;horizontalStack=0;resizeParent=1;resizeParentMax=0;resizeLast=0;collapsible=1;marginBottom=0;whiteSpace=wrap;html=1;fontFamily=Helvetica;" parent="1" vertex="1">
          <mxGeometry x="615" y="677" width="140" height="85" as="geometry" />
        </mxCell>
        <mxCell id="XV5S56shHWVsJy7ZyUxP-45" value="+ abrir()" style="text;strokeColor=none;fillColor=none;align=left;verticalAlign=top;spacingLeft=4;spacingRight=4;overflow=hidden;rotatable=0;points=[[0,0.5],[1,0.5]];portConstraint=eastwest;whiteSpace=wrap;html=1;fontFamily=Helvetica;" parent="XV5S56shHWVsJy7ZyUxP-44" vertex="1">
          <mxGeometry y="33" width="140" height="26" as="geometry" />
        </mxCell>
        <mxCell id="XV5S56shHWVsJy7ZyUxP-46" value="+ salvar()" style="text;strokeColor=none;fillColor=none;align=left;verticalAlign=top;spacingLeft=4;spacingRight=4;overflow=hidden;rotatable=0;points=[[0,0.5],[1,0.5]];portConstraint=eastwest;whiteSpace=wrap;html=1;fontFamily=Helvetica;" parent="XV5S56shHWVsJy7ZyUxP-44" vertex="1">
          <mxGeometry y="59" width="140" height="26" as="geometry" />
        </mxCell>
        <mxCell id="XV5S56shHWVsJy7ZyUxP-50" style="rounded=0;orthogonalLoop=1;jettySize=auto;html=1;exitX=0;exitY=0.5;exitDx=0;exitDy=0;entryX=1.006;entryY=0.636;entryDx=0;entryDy=0;entryPerimeter=0;endArrow=classic;endFill=0;fontFamily=Helvetica;" parent="1" source="XV5S56shHWVsJy7ZyUxP-45" target="XV5S56shHWVsJy7ZyUxP-27" edge="1">
          <mxGeometry relative="1" as="geometry" />
        </mxCell>
        <mxCell id="XV5S56shHWVsJy7ZyUxP-51" style="edgeStyle=none;shape=connector;rounded=0;orthogonalLoop=1;jettySize=auto;html=1;exitX=0;exitY=0;exitDx=0;exitDy=0;entryX=0.988;entryY=1.027;entryDx=0;entryDy=0;entryPerimeter=0;strokeColor=default;align=center;verticalAlign=middle;fontFamily=Helvetica;fontSize=11;fontColor=default;labelBackgroundColor=default;endArrow=classic;endFill=0;" parent="1" source="XV5S56shHWVsJy7ZyUxP-32" target="XV5S56shHWVsJy7ZyUxP-27" edge="1">
          <mxGeometry relative="1" as="geometry" />
        </mxCell>
        <mxCell id="XV5S56shHWVsJy7ZyUxP-52" style="edgeStyle=none;shape=connector;rounded=0;orthogonalLoop=1;jettySize=auto;html=1;exitX=0.5;exitY=0;exitDx=0;exitDy=0;entryX=0.5;entryY=1;entryDx=0;entryDy=0;entryPerimeter=0;strokeColor=default;align=center;verticalAlign=middle;fontFamily=Helvetica;fontSize=11;fontColor=default;labelBackgroundColor=default;endArrow=classic;endFill=0;" parent="1" source="XV5S56shHWVsJy7ZyUxP-35" target="XV5S56shHWVsJy7ZyUxP-27" edge="1">
          <mxGeometry relative="1" as="geometry" />
        </mxCell>
        <mxCell id="XV5S56shHWVsJy7ZyUxP-53" style="edgeStyle=none;shape=connector;rounded=0;orthogonalLoop=1;jettySize=auto;html=1;exitX=1;exitY=0;exitDx=0;exitDy=0;entryX=0.031;entryY=0.991;entryDx=0;entryDy=0;entryPerimeter=0;strokeColor=default;align=center;verticalAlign=middle;fontFamily=Helvetica;fontSize=11;fontColor=default;labelBackgroundColor=default;endArrow=classic;endFill=0;" parent="1" source="XV5S56shHWVsJy7ZyUxP-38" target="XV5S56shHWVsJy7ZyUxP-27" edge="1">
          <mxGeometry relative="1" as="geometry" />
        </mxCell>
        <mxCell id="XV5S56shHWVsJy7ZyUxP-54" style="edgeStyle=none;shape=connector;rounded=0;orthogonalLoop=1;jettySize=auto;html=1;exitX=1;exitY=0.5;exitDx=0;exitDy=0;entryX=0.013;entryY=0.636;entryDx=0;entryDy=0;entryPerimeter=0;strokeColor=default;align=center;verticalAlign=middle;fontFamily=Helvetica;fontSize=11;fontColor=default;labelBackgroundColor=default;endArrow=classic;endFill=0;" parent="1" source="XV5S56shHWVsJy7ZyUxP-42" target="XV5S56shHWVsJy7ZyUxP-27" edge="1">
          <mxGeometry relative="1" as="geometry" />
        </mxCell>
        <mxCell id="XV5S56shHWVsJy7ZyUxP-55" style="edgeStyle=none;shape=connector;rounded=0;orthogonalLoop=1;jettySize=auto;html=1;exitX=1;exitY=0.5;exitDx=0;exitDy=0;entryX=-0.003;entryY=0.609;entryDx=0;entryDy=0;entryPerimeter=0;strokeColor=default;align=center;verticalAlign=middle;fontFamily=Helvetica;fontSize=11;fontColor=default;labelBackgroundColor=default;endArrow=none;endFill=0;startFill=0;" parent="1" source="XV5S56shHWVsJy7ZyUxP-7" target="XV5S56shHWVsJy7ZyUxP-2" edge="1">
          <mxGeometry relative="1" as="geometry" />
        </mxCell>
        <mxCell id="XV5S56shHWVsJy7ZyUxP-56" value="*" style="edgeLabel;html=1;align=center;verticalAlign=middle;resizable=0;points=[];fontFamily=Helvetica;fontSize=11;fontColor=default;labelBackgroundColor=default;" parent="XV5S56shHWVsJy7ZyUxP-55" vertex="1" connectable="0">
          <mxGeometry x="-0.7091" relative="1" as="geometry">
            <mxPoint as="offset" />
          </mxGeometry>
        </mxCell>
        <mxCell id="XV5S56shHWVsJy7ZyUxP-57" value="1" style="edgeLabel;html=1;align=center;verticalAlign=middle;resizable=0;points=[];fontFamily=Helvetica;fontSize=11;fontColor=default;labelBackgroundColor=default;" parent="XV5S56shHWVsJy7ZyUxP-55" vertex="1" connectable="0">
          <mxGeometry x="0.4437" y="-1" relative="1" as="geometry">
            <mxPoint x="6" as="offset" />
          </mxGeometry>
        </mxCell>
        <mxCell id="XV5S56shHWVsJy7ZyUxP-58" style="edgeStyle=none;shape=connector;rounded=0;orthogonalLoop=1;jettySize=auto;html=1;exitX=0;exitY=0.5;exitDx=0;exitDy=0;entryX=1;entryY=0.5;entryDx=0;entryDy=0;strokeColor=default;align=center;verticalAlign=middle;fontFamily=Helvetica;fontSize=11;fontColor=default;labelBackgroundColor=default;endArrow=none;endFill=0;startFill=0;" parent="1" source="XV5S56shHWVsJy7ZyUxP-11" target="XV5S56shHWVsJy7ZyUxP-2" edge="1">
          <mxGeometry relative="1" as="geometry" />
        </mxCell>
        <mxCell id="XV5S56shHWVsJy7ZyUxP-67" value="1" style="edgeLabel;html=1;align=center;verticalAlign=middle;resizable=0;points=[];fontFamily=Helvetica;fontSize=11;fontColor=default;labelBackgroundColor=default;" parent="XV5S56shHWVsJy7ZyUxP-58" vertex="1" connectable="0">
          <mxGeometry x="-0.66" relative="1" as="geometry">
            <mxPoint y="-1" as="offset" />
          </mxGeometry>
        </mxCell>
        <mxCell id="XV5S56shHWVsJy7ZyUxP-68" value="1...*" style="edgeLabel;html=1;align=center;verticalAlign=middle;resizable=0;points=[];fontFamily=Helvetica;fontSize=11;fontColor=default;labelBackgroundColor=default;" parent="XV5S56shHWVsJy7ZyUxP-58" vertex="1" connectable="0">
          <mxGeometry x="0.64" y="-2" relative="1" as="geometry">
            <mxPoint as="offset" />
          </mxGeometry>
        </mxCell>
        <mxCell id="XV5S56shHWVsJy7ZyUxP-59" style="edgeStyle=none;shape=connector;rounded=0;orthogonalLoop=1;jettySize=auto;html=1;exitX=0;exitY=0;exitDx=0;exitDy=0;entryX=1;entryY=1;entryDx=0;entryDy=0;entryPerimeter=0;strokeColor=default;align=center;verticalAlign=middle;fontFamily=Helvetica;fontSize=11;fontColor=default;labelBackgroundColor=default;startFill=0;endArrow=none;endFill=0;" parent="1" source="XV5S56shHWVsJy7ZyUxP-14" target="XV5S56shHWVsJy7ZyUxP-4" edge="1">
          <mxGeometry relative="1" as="geometry" />
        </mxCell>
        <mxCell id="XV5S56shHWVsJy7ZyUxP-65" value="0...*" style="edgeLabel;html=1;align=center;verticalAlign=middle;resizable=0;points=[];fontFamily=Helvetica;fontSize=11;fontColor=default;labelBackgroundColor=default;" parent="XV5S56shHWVsJy7ZyUxP-59" vertex="1" connectable="0">
          <mxGeometry x="-0.3535" y="2" relative="1" as="geometry">
            <mxPoint x="-47" y="-16" as="offset" />
          </mxGeometry>
        </mxCell>
        <mxCell id="XV5S56shHWVsJy7ZyUxP-66" value="1" style="edgeLabel;html=1;align=center;verticalAlign=middle;resizable=0;points=[];fontFamily=Helvetica;fontSize=11;fontColor=default;labelBackgroundColor=default;" parent="XV5S56shHWVsJy7ZyUxP-59" vertex="1" connectable="0">
          <mxGeometry x="-0.3046" y="-1" relative="1" as="geometry">
            <mxPoint x="22" y="7" as="offset" />
          </mxGeometry>
        </mxCell>
        <mxCell id="XV5S56shHWVsJy7ZyUxP-60" style="edgeStyle=none;shape=connector;rounded=0;orthogonalLoop=1;jettySize=auto;html=1;exitX=1;exitY=0;exitDx=0;exitDy=0;entryX=0.003;entryY=0.982;entryDx=0;entryDy=0;entryPerimeter=0;strokeColor=default;align=center;verticalAlign=middle;fontFamily=Helvetica;fontSize=11;fontColor=default;labelBackgroundColor=default;startFill=0;endArrow=none;endFill=0;" parent="1" source="XV5S56shHWVsJy7ZyUxP-19" target="XV5S56shHWVsJy7ZyUxP-4" edge="1">
          <mxGeometry relative="1" as="geometry" />
        </mxCell>
        <mxCell id="XV5S56shHWVsJy7ZyUxP-70" value="0...*" style="edgeLabel;html=1;align=center;verticalAlign=middle;resizable=0;points=[];fontFamily=Helvetica;fontSize=11;fontColor=default;labelBackgroundColor=default;" parent="XV5S56shHWVsJy7ZyUxP-60" vertex="1" connectable="0">
          <mxGeometry x="0.7109" relative="1" as="geometry">
            <mxPoint as="offset" />
          </mxGeometry>
        </mxCell>
        <mxCell id="XV5S56shHWVsJy7ZyUxP-71" value="1" style="edgeLabel;html=1;align=center;verticalAlign=middle;resizable=0;points=[];fontFamily=Helvetica;fontSize=11;fontColor=default;labelBackgroundColor=default;" parent="XV5S56shHWVsJy7ZyUxP-60" vertex="1" connectable="0">
          <mxGeometry x="-0.6946" y="-2" relative="1" as="geometry">
            <mxPoint x="-3" as="offset" />
          </mxGeometry>
        </mxCell>
        <mxCell id="1uOu0MmswzALxyuZXBRw-2" value="medida" style="swimlane;fontStyle=1;align=center;verticalAlign=top;childLayout=stackLayout;horizontal=1;startSize=26;horizontalStack=0;resizeParent=1;resizeParentMax=0;resizeLast=0;collapsible=1;marginBottom=0;whiteSpace=wrap;html=1;" vertex="1" parent="1">
          <mxGeometry x="-470" y="350" width="160" height="134" as="geometry" />
        </mxCell>
        <mxCell id="1uOu0MmswzALxyuZXBRw-3" value="- id&lt;div&gt;- id_mediçao&lt;/div&gt;&lt;div&gt;- descriçao&lt;/div&gt;&lt;div&gt;&lt;span style=&quot;background-color: transparent; color: light-dark(rgb(0, 0, 0), rgb(255, 255, 255));&quot;&gt;- unidade&lt;/span&gt;&lt;/div&gt;&lt;div&gt;&lt;br&gt;&lt;/div&gt;" style="text;strokeColor=none;fillColor=none;align=left;verticalAlign=top;spacingLeft=4;spacingRight=4;overflow=hidden;rotatable=0;points=[[0,0.5],[1,0.5]];portConstraint=eastwest;whiteSpace=wrap;html=1;" vertex="1" parent="1uOu0MmswzALxyuZXBRw-2">
          <mxGeometry y="26" width="160" height="74" as="geometry" />
        </mxCell>
        <mxCell id="1uOu0MmswzALxyuZXBRw-4" value="" style="line;strokeWidth=1;fillColor=none;align=left;verticalAlign=middle;spacingTop=-1;spacingLeft=3;spacingRight=3;rotatable=0;labelPosition=right;points=[];portConstraint=eastwest;strokeColor=inherit;" vertex="1" parent="1uOu0MmswzALxyuZXBRw-2">
          <mxGeometry y="100" width="160" height="8" as="geometry" />
        </mxCell>
        <mxCell id="1uOu0MmswzALxyuZXBRw-5" value="+ method(type): type" style="text;strokeColor=none;fillColor=none;align=left;verticalAlign=top;spacingLeft=4;spacingRight=4;overflow=hidden;rotatable=0;points=[[0,0.5],[1,0.5]];portConstraint=eastwest;whiteSpace=wrap;html=1;" vertex="1" parent="1uOu0MmswzALxyuZXBRw-2">
          <mxGeometry y="108" width="160" height="26" as="geometry" />
        </mxCell>
        <mxCell id="1uOu0MmswzALxyuZXBRw-6" value="endereço" style="swimlane;fontStyle=1;align=center;verticalAlign=top;childLayout=stackLayout;horizontal=1;startSize=26;horizontalStack=0;resizeParent=1;resizeParentMax=0;resizeLast=0;collapsible=1;marginBottom=0;whiteSpace=wrap;html=1;" vertex="1" parent="1">
          <mxGeometry x="-150" y="90" width="160" height="134" as="geometry" />
        </mxCell>
        <mxCell id="1uOu0MmswzALxyuZXBRw-7" value="- bairro&lt;div&gt;- cep&lt;/div&gt;&lt;div&gt;- rua&lt;/div&gt;&lt;div&gt;- numero&lt;/div&gt;" style="text;strokeColor=none;fillColor=none;align=left;verticalAlign=top;spacingLeft=4;spacingRight=4;overflow=hidden;rotatable=0;points=[[0,0.5],[1,0.5]];portConstraint=eastwest;whiteSpace=wrap;html=1;" vertex="1" parent="1uOu0MmswzALxyuZXBRw-6">
          <mxGeometry y="26" width="160" height="74" as="geometry" />
        </mxCell>
        <mxCell id="1uOu0MmswzALxyuZXBRw-8" value="" style="line;strokeWidth=1;fillColor=none;align=left;verticalAlign=middle;spacingTop=-1;spacingLeft=3;spacingRight=3;rotatable=0;labelPosition=right;points=[];portConstraint=eastwest;strokeColor=inherit;" vertex="1" parent="1uOu0MmswzALxyuZXBRw-6">
          <mxGeometry y="100" width="160" height="8" as="geometry" />
        </mxCell>
        <mxCell id="1uOu0MmswzALxyuZXBRw-9" value="+ method(type): type" style="text;strokeColor=none;fillColor=none;align=left;verticalAlign=top;spacingLeft=4;spacingRight=4;overflow=hidden;rotatable=0;points=[[0,0.5],[1,0.5]];portConstraint=eastwest;whiteSpace=wrap;html=1;" vertex="1" parent="1uOu0MmswzALxyuZXBRw-6">
          <mxGeometry y="108" width="160" height="26" as="geometry" />
        </mxCell>
        <mxCell id="1uOu0MmswzALxyuZXBRw-10" style="rounded=0;orthogonalLoop=1;jettySize=auto;html=1;exitX=1;exitY=0.5;exitDx=0;exitDy=0;entryX=-0.018;entryY=0.609;entryDx=0;entryDy=0;endArrow=none;startFill=0;entryPerimeter=0;" edge="1" parent="1" source="1uOu0MmswzALxyuZXBRw-3" target="XV5S56shHWVsJy7ZyUxP-7">
          <mxGeometry relative="1" as="geometry" />
        </mxCell>
        <mxCell id="1uOu0MmswzALxyuZXBRw-13" style="rounded=0;orthogonalLoop=1;jettySize=auto;html=1;exitX=0;exitY=0;exitDx=0;exitDy=0;entryX=0.994;entryY=1.038;entryDx=0;entryDy=0;entryPerimeter=0;endArrow=none;startFill=0;" edge="1" parent="1" source="XV5S56shHWVsJy7ZyUxP-1" target="1uOu0MmswzALxyuZXBRw-9">
          <mxGeometry relative="1" as="geometry" />
        </mxCell>
        <mxCell id="1uOu0MmswzALxyuZXBRw-15" value="GrupMuscle" style="swimlane;fontStyle=1;align=center;verticalAlign=top;childLayout=stackLayout;horizontal=1;startSize=26;horizontalStack=0;resizeParent=1;resizeParentMax=0;resizeLast=0;collapsible=1;marginBottom=0;whiteSpace=wrap;html=1;fontFamily=Helvetica;" vertex="1" parent="1">
          <mxGeometry x="-480" y="620" width="220" height="130" as="geometry" />
        </mxCell>
        <mxCell id="1uOu0MmswzALxyuZXBRw-16" value="- id&lt;div&gt;- ID_exercicio&lt;/div&gt;&lt;div&gt;- nome_do_grupo&lt;/div&gt;&lt;div&gt;- descrição&lt;/div&gt;" style="text;strokeColor=none;fillColor=none;align=left;verticalAlign=top;spacingLeft=4;spacingRight=4;overflow=hidden;rotatable=0;points=[[0,0.5],[1,0.5]];portConstraint=eastwest;whiteSpace=wrap;html=1;fontFamily=Helvetica;" vertex="1" parent="1uOu0MmswzALxyuZXBRw-15">
          <mxGeometry y="26" width="220" height="64" as="geometry" />
        </mxCell>
        <mxCell id="1uOu0MmswzALxyuZXBRw-17" value="" style="line;strokeWidth=1;fillColor=none;align=left;verticalAlign=middle;spacingTop=-1;spacingLeft=3;spacingRight=3;rotatable=0;labelPosition=right;points=[];portConstraint=eastwest;strokeColor=inherit;fontFamily=Helvetica;" vertex="1" parent="1uOu0MmswzALxyuZXBRw-15">
          <mxGeometry y="90" width="220" height="8" as="geometry" />
        </mxCell>
        <mxCell id="1uOu0MmswzALxyuZXBRw-18" value="+ Treino(ID : int, ID_C : int, treino : str)" style="text;strokeColor=none;fillColor=none;align=left;verticalAlign=top;spacingLeft=4;spacingRight=4;overflow=hidden;rotatable=0;points=[[0,0.5],[1,0.5]];portConstraint=eastwest;whiteSpace=wrap;html=1;fontFamily=Helvetica;" vertex="1" parent="1uOu0MmswzALxyuZXBRw-15">
          <mxGeometry y="98" width="220" height="32" as="geometry" />
        </mxCell>
        <mxCell id="1uOu0MmswzALxyuZXBRw-19" style="rounded=0;orthogonalLoop=1;jettySize=auto;html=1;exitX=1;exitY=0.5;exitDx=0;exitDy=0;entryX=0;entryY=0.5;entryDx=0;entryDy=0;endArrow=none;startFill=0;" edge="1" parent="1" source="1uOu0MmswzALxyuZXBRw-16" target="XV5S56shHWVsJy7ZyUxP-20">
          <mxGeometry relative="1" as="geometry" />
        </mxCell>
      </root>
    </mxGraphModel>
  </diagram>
</mxfile>
